<?xml version="1.0" encoding="UTF-8"?>
<svg width="259px" height="28px" viewBox="0 0 259 28" version="1.1" xmlns="http://www.w3.org/2000/svg" xmlns:xlink="http://www.w3.org/1999/xlink">
    <!-- Generator: Sketch 51.2 (57519) - http://www.bohemiancoding.com/sketch -->
    <title>Untitled 3</title>
    <desc>Created with Sketch.</desc>
    <defs></defs>
    <g id="Page-1" stroke="none" stroke-width="1" fill="none" fill-rule="evenodd" font-family="SuperiorTitle-Black, Superior Title" font-size="24" font-weight="700" letter-spacing="7.6">
        <g id="Group" transform="translate(-4.000000, -6.000000)" fill="#000000">
            <text id="s" transform="translate(13.500000, 17.000000) rotate(-20.000000) translate(-13.500000, -17.000000) ">
                <tspan x="4.264" y="23">s</tspan>
            </text>
            <text id="w" transform="translate(34.000000, 20.000000) rotate(-20.000000) translate(-34.000000, -20.000000) ">
                <tspan x="20.084" y="26">w</tspan>
            </text>
            <text id="e" transform="translate(53.000000, 15.000000) rotate(-20.000000) translate(-53.000000, -15.000000) ">
                <tspan x="43.08" y="21">e</tspan>
            </text>
            <text id="e" transform="translate(70.000000, 21.000000) rotate(-20.000000) translate(-70.000000, -21.000000) ">
                <tspan x="60.08" y="27">e</tspan>
            </text>
            <text id="t" transform="translate(86.500000, 16.000000) rotate(-20.000000) translate(-86.500000, -16.000000) ">
                <tspan x="78.224" y="22">t</tspan>
            </text>
        </g>
        <g id="Group-2" transform="translate(99.500000, -4.000000)" fill="#634974">
            <text id="a" transform="translate(14.500000, 16.000000) rotate(-20.000000) translate(-14.500000, -16.000000) ">
                <tspan x="4.148" y="22">a</tspan>
            </text>
            <text id="n" transform="translate(34.500000, 19.000000) rotate(-20.000000) translate(-34.500000, -19.000000) ">
                <tspan x="23.308" y="25">n</tspan>
            </text>
            <text id="d" transform="translate(55.000000, 16.000000) rotate(-20.000000) translate(-55.000000, -16.000000) ">
                <tspan x="44.204" y="22">d</tspan>
            </text>
        </g>
        <g id="Group-3" transform="translate(174.000000, -4.000000)" fill="#000000">
            <text id="t" transform="translate(64.500000, 18.000000) rotate(-20.000000) translate(-64.500000, -18.000000) ">
                <tspan x="56.224" y="24">t</tspan>
            </text>
            <text id="y" transform="translate(83.000000, 17.000000) rotate(-20.000000) translate(-83.000000, -17.000000) ">
                <tspan x="72.396" y="23">y</tspan>
            </text>
            <text id="a" transform="translate(30.500000, 18.000000) rotate(-20.000000) translate(-30.500000, -18.000000) ">
                <tspan x="20.148" y="24">a</tspan>
            </text>
            <text id="s" transform="translate(13.500000, 16.000000) rotate(-20.000000) translate(-13.500000, -16.000000) ">
                <tspan x="4.264" y="22">s</tspan>
            </text>
            <text id="l" transform="translate(47.000000, 15.000000) rotate(-20.000000) translate(-47.000000, -15.000000) ">
                <tspan x="39.372" y="21">l</tspan>
            </text>
        </g>
    </g>
</svg>